<mxfile host="app.diagrams.net" agent="Mozilla/5.0 (Windows NT 10.0; Win64; x64) AppleWebKit/537.36 (KHTML, like Gecko) Chrome/128.0.0.0 Safari/537.36" version="24.7.16">
  <diagram name="PÃ¡gina-1" id="djzoedvgfX_gTTbieMGv">
    <mxGraphModel dx="2261" dy="780" grid="1" gridSize="10" guides="1" tooltips="1" connect="1" arrows="1" fold="1" page="1" pageScale="1" pageWidth="827" pageHeight="1169" math="0" shadow="0">
      <root>
        <mxCell id="0" />
        <mxCell id="1" parent="0" />
        <mxCell id="LVnps-VDEt6qwhc1rglL-49" value="" style="rounded=1;whiteSpace=wrap;html=1;fillColor=#f9f7ed;strokeColor=#36393d;" vertex="1" parent="1">
          <mxGeometry x="-220" y="40" width="1280" height="560" as="geometry" />
        </mxCell>
        <mxCell id="LVnps-VDEt6qwhc1rglL-3" style="rounded=0;orthogonalLoop=1;jettySize=auto;html=1;exitX=1;exitY=0.5;exitDx=0;exitDy=0;" edge="1" parent="1" source="LVnps-VDEt6qwhc1rglL-1" target="LVnps-VDEt6qwhc1rglL-2">
          <mxGeometry relative="1" as="geometry" />
        </mxCell>
        <mxCell id="LVnps-VDEt6qwhc1rglL-4" value="A&lt;div&gt;2&lt;/div&gt;" style="edgeLabel;html=1;align=center;verticalAlign=middle;resizable=0;points=[];fontStyle=1" vertex="1" connectable="0" parent="LVnps-VDEt6qwhc1rglL-3">
          <mxGeometry x="0.0222" y="-2" relative="1" as="geometry">
            <mxPoint as="offset" />
          </mxGeometry>
        </mxCell>
        <mxCell id="LVnps-VDEt6qwhc1rglL-1" value="1" style="ellipse;whiteSpace=wrap;html=1;aspect=fixed;fillColor=#fff2cc;strokeColor=#d6b656;gradientColor=#ffd966;" vertex="1" parent="1">
          <mxGeometry x="-80" y="210" width="50" height="50" as="geometry" />
        </mxCell>
        <mxCell id="LVnps-VDEt6qwhc1rglL-7" style="rounded=0;orthogonalLoop=1;jettySize=auto;html=1;exitX=1;exitY=0;exitDx=0;exitDy=0;entryX=0;entryY=0.5;entryDx=0;entryDy=0;" edge="1" parent="1" source="LVnps-VDEt6qwhc1rglL-2" target="LVnps-VDEt6qwhc1rglL-6">
          <mxGeometry relative="1" as="geometry" />
        </mxCell>
        <mxCell id="LVnps-VDEt6qwhc1rglL-9" value="B&lt;div&gt;2&lt;/div&gt;" style="edgeLabel;html=1;align=center;verticalAlign=middle;resizable=0;points=[];fontStyle=1" vertex="1" connectable="0" parent="LVnps-VDEt6qwhc1rglL-7">
          <mxGeometry x="-0.046" y="2" relative="1" as="geometry">
            <mxPoint as="offset" />
          </mxGeometry>
        </mxCell>
        <mxCell id="LVnps-VDEt6qwhc1rglL-8" style="rounded=0;orthogonalLoop=1;jettySize=auto;html=1;exitX=1;exitY=1;exitDx=0;exitDy=0;entryX=0;entryY=0;entryDx=0;entryDy=0;" edge="1" parent="1" source="LVnps-VDEt6qwhc1rglL-2" target="LVnps-VDEt6qwhc1rglL-5">
          <mxGeometry relative="1" as="geometry" />
        </mxCell>
        <mxCell id="LVnps-VDEt6qwhc1rglL-10" value="B&lt;div&gt;2&lt;/div&gt;" style="edgeLabel;html=1;align=center;verticalAlign=middle;resizable=0;points=[];fontStyle=1" vertex="1" connectable="0" parent="LVnps-VDEt6qwhc1rglL-8">
          <mxGeometry x="-0.0578" y="2" relative="1" as="geometry">
            <mxPoint x="1" as="offset" />
          </mxGeometry>
        </mxCell>
        <mxCell id="LVnps-VDEt6qwhc1rglL-2" value="2" style="ellipse;whiteSpace=wrap;html=1;aspect=fixed;fillColor=#fff2cc;strokeColor=#d6b656;gradientColor=#ffd966;" vertex="1" parent="1">
          <mxGeometry x="110" y="210" width="50" height="50" as="geometry" />
        </mxCell>
        <mxCell id="LVnps-VDEt6qwhc1rglL-31" style="edgeStyle=orthogonalEdgeStyle;rounded=0;orthogonalLoop=1;jettySize=auto;html=1;exitX=0.5;exitY=1;exitDx=0;exitDy=0;entryX=0.5;entryY=0;entryDx=0;entryDy=0;" edge="1" parent="1" source="LVnps-VDEt6qwhc1rglL-5" target="LVnps-VDEt6qwhc1rglL-30">
          <mxGeometry relative="1" as="geometry" />
        </mxCell>
        <mxCell id="LVnps-VDEt6qwhc1rglL-32" value="K&lt;div&gt;8&lt;/div&gt;" style="edgeLabel;html=1;align=center;verticalAlign=middle;resizable=0;points=[];fontStyle=1" vertex="1" connectable="0" parent="LVnps-VDEt6qwhc1rglL-31">
          <mxGeometry x="-0.0923" y="2" relative="1" as="geometry">
            <mxPoint as="offset" />
          </mxGeometry>
        </mxCell>
        <mxCell id="LVnps-VDEt6qwhc1rglL-34" style="edgeStyle=orthogonalEdgeStyle;rounded=0;orthogonalLoop=1;jettySize=auto;html=1;exitX=1;exitY=0.5;exitDx=0;exitDy=0;entryX=0;entryY=0.5;entryDx=0;entryDy=0;" edge="1" parent="1" source="LVnps-VDEt6qwhc1rglL-5" target="LVnps-VDEt6qwhc1rglL-33">
          <mxGeometry relative="1" as="geometry" />
        </mxCell>
        <mxCell id="LVnps-VDEt6qwhc1rglL-35" value="K&lt;div&gt;8&lt;/div&gt;" style="edgeLabel;html=1;align=center;verticalAlign=middle;resizable=0;points=[];fontStyle=1" vertex="1" connectable="0" parent="LVnps-VDEt6qwhc1rglL-34">
          <mxGeometry x="-0.24" y="-2" relative="1" as="geometry">
            <mxPoint as="offset" />
          </mxGeometry>
        </mxCell>
        <mxCell id="LVnps-VDEt6qwhc1rglL-5" value="11" style="ellipse;whiteSpace=wrap;html=1;aspect=fixed;fillColor=#e51400;strokeColor=#B20000;fontColor=#ffffff;" vertex="1" parent="1">
          <mxGeometry x="400" y="300" width="50" height="50" as="geometry" />
        </mxCell>
        <mxCell id="LVnps-VDEt6qwhc1rglL-6" value="12" style="ellipse;whiteSpace=wrap;html=1;aspect=fixed;fillColor=#fff2cc;strokeColor=#d6b656;gradientColor=#ffd966;" vertex="1" parent="1">
          <mxGeometry x="400" y="190" width="50" height="50" as="geometry" />
        </mxCell>
        <mxCell id="LVnps-VDEt6qwhc1rglL-13" style="rounded=0;orthogonalLoop=1;jettySize=auto;html=1;exitX=1;exitY=0.5;exitDx=0;exitDy=0;" edge="1" parent="1" source="LVnps-VDEt6qwhc1rglL-11" target="LVnps-VDEt6qwhc1rglL-12">
          <mxGeometry relative="1" as="geometry" />
        </mxCell>
        <mxCell id="LVnps-VDEt6qwhc1rglL-14" value="E&lt;div&gt;1&lt;/div&gt;" style="edgeLabel;html=1;align=center;verticalAlign=middle;resizable=0;points=[];fontStyle=1" vertex="1" connectable="0" parent="LVnps-VDEt6qwhc1rglL-13">
          <mxGeometry x="-0.0889" y="-1" relative="1" as="geometry">
            <mxPoint as="offset" />
          </mxGeometry>
        </mxCell>
        <mxCell id="LVnps-VDEt6qwhc1rglL-11" value="5" style="ellipse;whiteSpace=wrap;html=1;aspect=fixed;fillColor=#fff2cc;strokeColor=#d6b656;gradientColor=#ffd966;" vertex="1" parent="1">
          <mxGeometry x="-80" y="300" width="50" height="50" as="geometry" />
        </mxCell>
        <mxCell id="LVnps-VDEt6qwhc1rglL-15" style="edgeStyle=orthogonalEdgeStyle;rounded=0;orthogonalLoop=1;jettySize=auto;html=1;exitX=1;exitY=0.5;exitDx=0;exitDy=0;entryX=0;entryY=0.5;entryDx=0;entryDy=0;" edge="1" parent="1" source="LVnps-VDEt6qwhc1rglL-12" target="LVnps-VDEt6qwhc1rglL-5">
          <mxGeometry relative="1" as="geometry" />
        </mxCell>
        <mxCell id="LVnps-VDEt6qwhc1rglL-17" value="F&lt;div&gt;2&lt;/div&gt;" style="edgeLabel;html=1;align=center;verticalAlign=middle;resizable=0;points=[];fontStyle=1" vertex="1" connectable="0" parent="LVnps-VDEt6qwhc1rglL-15">
          <mxGeometry x="-0.0462" y="-2" relative="1" as="geometry">
            <mxPoint as="offset" />
          </mxGeometry>
        </mxCell>
        <mxCell id="LVnps-VDEt6qwhc1rglL-12" value="6" style="ellipse;whiteSpace=wrap;html=1;aspect=fixed;fillColor=#fff2cc;strokeColor=#d6b656;gradientColor=#ffd966;" vertex="1" parent="1">
          <mxGeometry x="110" y="300" width="50" height="50" as="geometry" />
        </mxCell>
        <mxCell id="LVnps-VDEt6qwhc1rglL-21" style="edgeStyle=orthogonalEdgeStyle;rounded=0;orthogonalLoop=1;jettySize=auto;html=1;exitX=1;exitY=0.5;exitDx=0;exitDy=0;entryX=0;entryY=0.5;entryDx=0;entryDy=0;" edge="1" parent="1" source="LVnps-VDEt6qwhc1rglL-18" target="LVnps-VDEt6qwhc1rglL-19">
          <mxGeometry relative="1" as="geometry" />
        </mxCell>
        <mxCell id="LVnps-VDEt6qwhc1rglL-22" value="G&lt;div&gt;2&lt;/div&gt;" style="edgeLabel;html=1;align=center;verticalAlign=middle;resizable=0;points=[];fontStyle=1" vertex="1" connectable="0" parent="LVnps-VDEt6qwhc1rglL-21">
          <mxGeometry x="0.0143" relative="1" as="geometry">
            <mxPoint as="offset" />
          </mxGeometry>
        </mxCell>
        <mxCell id="LVnps-VDEt6qwhc1rglL-18" value="7" style="ellipse;whiteSpace=wrap;html=1;aspect=fixed;fillColor=#e51400;strokeColor=#B20000;fontColor=#ffffff;" vertex="1" parent="1">
          <mxGeometry x="-80" y="390" width="50" height="50" as="geometry" />
        </mxCell>
        <mxCell id="LVnps-VDEt6qwhc1rglL-23" style="edgeStyle=orthogonalEdgeStyle;rounded=0;orthogonalLoop=1;jettySize=auto;html=1;exitX=1;exitY=0.5;exitDx=0;exitDy=0;entryX=0;entryY=0.5;entryDx=0;entryDy=0;" edge="1" parent="1" source="LVnps-VDEt6qwhc1rglL-19" target="LVnps-VDEt6qwhc1rglL-20">
          <mxGeometry relative="1" as="geometry" />
        </mxCell>
        <mxCell id="LVnps-VDEt6qwhc1rglL-24" value="I&lt;div&gt;1&lt;/div&gt;" style="edgeLabel;html=1;align=center;verticalAlign=middle;resizable=0;points=[];fontStyle=1" vertex="1" connectable="0" parent="LVnps-VDEt6qwhc1rglL-23">
          <mxGeometry x="0.0462" relative="1" as="geometry">
            <mxPoint as="offset" />
          </mxGeometry>
        </mxCell>
        <mxCell id="LVnps-VDEt6qwhc1rglL-19" value="9" style="ellipse;whiteSpace=wrap;html=1;aspect=fixed;fillColor=#e51400;strokeColor=#B20000;fontColor=#ffffff;" vertex="1" parent="1">
          <mxGeometry x="110" y="390" width="50" height="50" as="geometry" />
        </mxCell>
        <mxCell id="LVnps-VDEt6qwhc1rglL-25" style="rounded=0;orthogonalLoop=1;jettySize=auto;html=1;exitX=1;exitY=0;exitDx=0;exitDy=0;entryX=0;entryY=1;entryDx=0;entryDy=0;" edge="1" parent="1" source="LVnps-VDEt6qwhc1rglL-20" target="LVnps-VDEt6qwhc1rglL-5">
          <mxGeometry relative="1" as="geometry" />
        </mxCell>
        <mxCell id="LVnps-VDEt6qwhc1rglL-26" value="J&lt;div&gt;10&lt;/div&gt;" style="edgeLabel;html=1;align=center;verticalAlign=middle;resizable=0;points=[];" vertex="1" connectable="0" parent="LVnps-VDEt6qwhc1rglL-25">
          <mxGeometry x="-0.0906" y="-1" relative="1" as="geometry">
            <mxPoint as="offset" />
          </mxGeometry>
        </mxCell>
        <mxCell id="LVnps-VDEt6qwhc1rglL-20" value="10" style="ellipse;whiteSpace=wrap;html=1;aspect=fixed;fillColor=#e51400;strokeColor=#B20000;fontColor=#ffffff;" vertex="1" parent="1">
          <mxGeometry x="290" y="390" width="50" height="50" as="geometry" />
        </mxCell>
        <mxCell id="LVnps-VDEt6qwhc1rglL-28" style="rounded=0;orthogonalLoop=1;jettySize=auto;html=1;exitX=1;exitY=0.5;exitDx=0;exitDy=0;entryX=0;entryY=1;entryDx=0;entryDy=0;" edge="1" parent="1" source="LVnps-VDEt6qwhc1rglL-27" target="LVnps-VDEt6qwhc1rglL-19">
          <mxGeometry relative="1" as="geometry" />
        </mxCell>
        <mxCell id="LVnps-VDEt6qwhc1rglL-29" value="H&lt;div&gt;1&lt;/div&gt;" style="edgeLabel;html=1;align=center;verticalAlign=middle;resizable=0;points=[];fontStyle=1" vertex="1" connectable="0" parent="LVnps-VDEt6qwhc1rglL-28">
          <mxGeometry x="0.0902" y="-2" relative="1" as="geometry">
            <mxPoint y="-1" as="offset" />
          </mxGeometry>
        </mxCell>
        <mxCell id="LVnps-VDEt6qwhc1rglL-27" value="8" style="ellipse;whiteSpace=wrap;html=1;aspect=fixed;fillColor=#fff2cc;strokeColor=#d6b656;gradientColor=#ffd966;" vertex="1" parent="1">
          <mxGeometry x="-80" y="480" width="50" height="50" as="geometry" />
        </mxCell>
        <mxCell id="LVnps-VDEt6qwhc1rglL-39" style="rounded=0;orthogonalLoop=1;jettySize=auto;html=1;exitX=1;exitY=0.5;exitDx=0;exitDy=0;entryX=0.06;entryY=0.72;entryDx=0;entryDy=0;entryPerimeter=0;" edge="1" parent="1" source="LVnps-VDEt6qwhc1rglL-30" target="LVnps-VDEt6qwhc1rglL-36">
          <mxGeometry relative="1" as="geometry" />
        </mxCell>
        <mxCell id="LVnps-VDEt6qwhc1rglL-40" value="O&lt;div&gt;1&lt;/div&gt;" style="edgeLabel;html=1;align=center;verticalAlign=middle;resizable=0;points=[];fontStyle=1" vertex="1" connectable="0" parent="LVnps-VDEt6qwhc1rglL-39">
          <mxGeometry x="0.1102" y="-1" relative="1" as="geometry">
            <mxPoint as="offset" />
          </mxGeometry>
        </mxCell>
        <mxCell id="LVnps-VDEt6qwhc1rglL-30" value="15" style="ellipse;whiteSpace=wrap;html=1;aspect=fixed;fillColor=#fff2cc;strokeColor=#d6b656;gradientColor=#ffd966;" vertex="1" parent="1">
          <mxGeometry x="400" y="480" width="50" height="50" as="geometry" />
        </mxCell>
        <mxCell id="LVnps-VDEt6qwhc1rglL-37" style="edgeStyle=orthogonalEdgeStyle;rounded=0;orthogonalLoop=1;jettySize=auto;html=1;exitX=1;exitY=0.5;exitDx=0;exitDy=0;entryX=0;entryY=0.5;entryDx=0;entryDy=0;" edge="1" parent="1" source="LVnps-VDEt6qwhc1rglL-33" target="LVnps-VDEt6qwhc1rglL-36">
          <mxGeometry relative="1" as="geometry" />
        </mxCell>
        <mxCell id="LVnps-VDEt6qwhc1rglL-38" value="&lt;div&gt;M&lt;/div&gt;&lt;div&gt;1&lt;/div&gt;" style="edgeLabel;html=1;align=center;verticalAlign=middle;resizable=0;points=[];fontStyle=1" vertex="1" connectable="0" parent="LVnps-VDEt6qwhc1rglL-37">
          <mxGeometry x="0.1263" y="-3" relative="1" as="geometry">
            <mxPoint as="offset" />
          </mxGeometry>
        </mxCell>
        <mxCell id="LVnps-VDEt6qwhc1rglL-33" value="13" style="ellipse;whiteSpace=wrap;html=1;aspect=fixed;fillColor=#e51400;strokeColor=#B20000;fontColor=#ffffff;" vertex="1" parent="1">
          <mxGeometry x="600" y="300" width="50" height="50" as="geometry" />
        </mxCell>
        <mxCell id="LVnps-VDEt6qwhc1rglL-36" value="Fim" style="ellipse;whiteSpace=wrap;html=1;aspect=fixed;fillColor=#e51400;strokeColor=#B20000;fontColor=#ffffff;" vertex="1" parent="1">
          <mxGeometry x="840" y="300" width="50" height="50" as="geometry" />
        </mxCell>
        <mxCell id="LVnps-VDEt6qwhc1rglL-42" style="rounded=0;orthogonalLoop=1;jettySize=auto;html=1;exitX=1;exitY=0;exitDx=0;exitDy=0;entryX=0.32;entryY=1;entryDx=0;entryDy=0;entryPerimeter=0;" edge="1" parent="1" source="LVnps-VDEt6qwhc1rglL-41" target="LVnps-VDEt6qwhc1rglL-36">
          <mxGeometry relative="1" as="geometry" />
        </mxCell>
        <mxCell id="LVnps-VDEt6qwhc1rglL-44" value="C&lt;div&gt;1&lt;/div&gt;" style="edgeLabel;html=1;align=center;verticalAlign=middle;resizable=0;points=[];fontStyle=1" vertex="1" connectable="0" parent="LVnps-VDEt6qwhc1rglL-42">
          <mxGeometry x="0.0052" y="3" relative="1" as="geometry">
            <mxPoint as="offset" />
          </mxGeometry>
        </mxCell>
        <mxCell id="LVnps-VDEt6qwhc1rglL-41" value="3" style="ellipse;whiteSpace=wrap;html=1;aspect=fixed;fillColor=#fff2cc;strokeColor=#d6b656;gradientColor=#ffd966;" vertex="1" parent="1">
          <mxGeometry x="600" y="480" width="50" height="50" as="geometry" />
        </mxCell>
        <mxCell id="LVnps-VDEt6qwhc1rglL-46" style="rounded=0;orthogonalLoop=1;jettySize=auto;html=1;exitX=0.5;exitY=0;exitDx=0;exitDy=0;entryX=0.5;entryY=1;entryDx=0;entryDy=0;" edge="1" parent="1" source="LVnps-VDEt6qwhc1rglL-45" target="LVnps-VDEt6qwhc1rglL-36">
          <mxGeometry relative="1" as="geometry" />
        </mxCell>
        <mxCell id="LVnps-VDEt6qwhc1rglL-47" value="D&lt;div&gt;1&lt;/div&gt;" style="edgeLabel;html=1;align=center;verticalAlign=middle;resizable=0;points=[];fontStyle=1" vertex="1" connectable="0" parent="LVnps-VDEt6qwhc1rglL-46">
          <mxGeometry x="-0.0809" y="-3" relative="1" as="geometry">
            <mxPoint as="offset" />
          </mxGeometry>
        </mxCell>
        <mxCell id="LVnps-VDEt6qwhc1rglL-45" value="4" style="ellipse;whiteSpace=wrap;html=1;aspect=fixed;fillColor=#fff2cc;strokeColor=#d6b656;gradientColor=#ffd966;" vertex="1" parent="1">
          <mxGeometry x="810" y="480" width="50" height="50" as="geometry" />
        </mxCell>
        <mxCell id="LVnps-VDEt6qwhc1rglL-50" value="&lt;font style=&quot;font-size: 24px;&quot;&gt;&lt;b&gt;CPM - LEARN WORD&lt;/b&gt;&lt;/font&gt;" style="rounded=1;whiteSpace=wrap;html=1;fillColor=#dae8fc;strokeColor=#6c8ebf;gradientColor=#7ea6e0;" vertex="1" parent="1">
          <mxGeometry x="220" y="70" width="420" height="80" as="geometry" />
        </mxCell>
      </root>
    </mxGraphModel>
  </diagram>
</mxfile>
